<mxfile host="app.diagrams.net" agent="Mozilla/5.0 (Macintosh; Intel Mac OS X 10_15_7) AppleWebKit/537.36 (KHTML, like Gecko) Chrome/135.0.0.0 Safari/537.36" version="26.2.14">
  <diagram name="第 1 页" id="Nqat955Mg05JtEEsNF_g">
    <mxGraphModel dx="3443" dy="1917" grid="1" gridSize="10" guides="1" tooltips="1" connect="1" arrows="1" fold="1" page="1" pageScale="1" pageWidth="945" pageHeight="462" math="0" shadow="0">
      <root>
        <mxCell id="0" />
        <mxCell id="1" parent="0" />
        <mxCell id="EvM-ZbhBUgG-s1-ycYIe-17" style="edgeStyle=orthogonalEdgeStyle;rounded=0;orthogonalLoop=1;jettySize=auto;html=1;exitX=1;exitY=0.5;exitDx=0;exitDy=0;entryX=0;entryY=0.5;entryDx=0;entryDy=0;fontSize=16;fontStyle=1;movable=0;resizable=0;rotatable=0;deletable=0;editable=0;locked=1;connectable=0;" parent="1" source="EvM-ZbhBUgG-s1-ycYIe-16" target="EvM-ZbhBUgG-s1-ycYIe-13" edge="1">
          <mxGeometry relative="1" as="geometry" />
        </mxCell>
        <mxCell id="EvM-ZbhBUgG-s1-ycYIe-16" value="Inst mem" style="rounded=1;whiteSpace=wrap;html=1;fontSize=16;fontStyle=1;movable=0;resizable=0;rotatable=0;deletable=0;editable=0;locked=1;connectable=0;" parent="1" vertex="1">
          <mxGeometry x="5" y="230" width="130" height="60" as="geometry" />
        </mxCell>
        <mxCell id="EvM-ZbhBUgG-s1-ycYIe-19" style="edgeStyle=orthogonalEdgeStyle;rounded=0;orthogonalLoop=1;jettySize=auto;html=1;exitX=1;exitY=0.5;exitDx=0;exitDy=0;entryX=0;entryY=0.5;entryDx=0;entryDy=0;fontSize=16;fontStyle=1;movable=0;resizable=0;rotatable=0;deletable=0;editable=0;locked=1;connectable=0;" parent="1" source="EvM-ZbhBUgG-s1-ycYIe-18" target="EvM-ZbhBUgG-s1-ycYIe-15" edge="1">
          <mxGeometry relative="1" as="geometry" />
        </mxCell>
        <mxCell id="EvM-ZbhBUgG-s1-ycYIe-18" value="PC" style="rounded=1;whiteSpace=wrap;html=1;fontSize=16;fontStyle=1;movable=0;resizable=0;rotatable=0;deletable=0;editable=0;locked=1;connectable=0;" parent="1" vertex="1">
          <mxGeometry y="465" width="130" height="60" as="geometry" />
        </mxCell>
        <mxCell id="EvM-ZbhBUgG-s1-ycYIe-50" style="edgeStyle=orthogonalEdgeStyle;rounded=0;orthogonalLoop=1;jettySize=auto;html=1;exitX=0.5;exitY=1;exitDx=0;exitDy=0;entryX=0.25;entryY=0;entryDx=0;entryDy=0;strokeColor=#f21c1c;fontSize=16;fontStyle=1;strokeWidth=3;dashed=1;dashPattern=1 2;movable=0;resizable=0;rotatable=0;deletable=0;editable=0;locked=1;connectable=0;" parent="1" source="EvM-ZbhBUgG-s1-ycYIe-31" target="EvM-ZbhBUgG-s1-ycYIe-48" edge="1">
          <mxGeometry relative="1" as="geometry">
            <mxPoint x="495" y="240" as="sourcePoint" />
          </mxGeometry>
        </mxCell>
        <mxCell id="Ys8VjhH2vFzZ4irLXQsm-13" style="edgeStyle=orthogonalEdgeStyle;rounded=0;orthogonalLoop=1;jettySize=auto;html=1;exitX=0.75;exitY=1;exitDx=0;exitDy=0;exitPerimeter=0;entryX=0.75;entryY=0;entryDx=0;entryDy=0;dashed=1;dashPattern=1 2;strokeWidth=3;strokeColor=#FF0000;movable=0;resizable=0;rotatable=0;deletable=0;editable=0;locked=1;connectable=0;" parent="1" edge="1">
          <mxGeometry relative="1" as="geometry">
            <mxPoint x="557.5" y="230" as="sourcePoint" />
            <mxPoint x="532.5" y="630" as="targetPoint" />
            <Array as="points">
              <mxPoint x="560" y="230" />
              <mxPoint x="560" y="430" />
              <mxPoint x="533" y="430" />
            </Array>
          </mxGeometry>
        </mxCell>
        <mxCell id="Ys8VjhH2vFzZ4irLXQsm-32" style="edgeStyle=orthogonalEdgeStyle;rounded=0;orthogonalLoop=1;jettySize=auto;html=1;exitX=1;exitY=0.25;exitDx=0;exitDy=0;exitPerimeter=0;entryX=0;entryY=0.5;entryDx=0;entryDy=0;dashed=1;dashPattern=1 2;strokeWidth=3;strokeColor=#FF0000;movable=0;resizable=0;rotatable=0;deletable=0;editable=0;locked=1;connectable=0;" parent="1" source="EvM-ZbhBUgG-s1-ycYIe-31" target="MULMhlW8bTZCU8NpR_TZ-67" edge="1">
          <mxGeometry relative="1" as="geometry" />
        </mxCell>
        <mxCell id="Ys8VjhH2vFzZ4irLXQsm-33" style="edgeStyle=orthogonalEdgeStyle;rounded=0;orthogonalLoop=1;jettySize=auto;html=1;exitX=1;exitY=0.38;exitDx=0;exitDy=0;exitPerimeter=0;entryX=0;entryY=0.25;entryDx=0;entryDy=0;dashed=1;dashPattern=1 2;strokeWidth=3;strokeColor=#FF0000;movable=0;resizable=0;rotatable=0;deletable=0;editable=0;locked=1;connectable=0;" parent="1" source="EvM-ZbhBUgG-s1-ycYIe-31" target="MULMhlW8bTZCU8NpR_TZ-68" edge="1">
          <mxGeometry relative="1" as="geometry" />
        </mxCell>
        <mxCell id="Ys8VjhH2vFzZ4irLXQsm-34" style="edgeStyle=orthogonalEdgeStyle;rounded=0;orthogonalLoop=1;jettySize=auto;html=1;exitX=1;exitY=0.5;exitDx=0;exitDy=0;exitPerimeter=0;entryX=0;entryY=0.5;entryDx=0;entryDy=0;dashed=1;dashPattern=1 2;strokeWidth=3;strokeColor=#FF0000;movable=0;resizable=0;rotatable=0;deletable=0;editable=0;locked=1;connectable=0;" parent="1" source="EvM-ZbhBUgG-s1-ycYIe-31" target="MULMhlW8bTZCU8NpR_TZ-69" edge="1">
          <mxGeometry relative="1" as="geometry" />
        </mxCell>
        <mxCell id="Ys8VjhH2vFzZ4irLXQsm-43" style="edgeStyle=orthogonalEdgeStyle;rounded=0;orthogonalLoop=1;jettySize=auto;html=1;exitX=1;exitY=0.63;exitDx=0;exitDy=0;exitPerimeter=0;entryX=0;entryY=0.5;entryDx=0;entryDy=0;dashed=1;dashPattern=1 2;strokeWidth=3;strokeColor=#FF0000;movable=0;resizable=0;rotatable=0;deletable=0;editable=0;locked=1;connectable=0;" parent="1" source="EvM-ZbhBUgG-s1-ycYIe-31" target="Ys8VjhH2vFzZ4irLXQsm-35" edge="1">
          <mxGeometry relative="1" as="geometry" />
        </mxCell>
        <mxCell id="Ys8VjhH2vFzZ4irLXQsm-44" style="edgeStyle=orthogonalEdgeStyle;rounded=0;orthogonalLoop=1;jettySize=auto;html=1;exitX=1;exitY=0.75;exitDx=0;exitDy=0;exitPerimeter=0;entryX=0;entryY=0.5;entryDx=0;entryDy=0;dashed=1;dashPattern=1 2;strokeWidth=3;strokeColor=#FF0000;movable=0;resizable=0;rotatable=0;deletable=0;editable=0;locked=1;connectable=0;" parent="1" source="EvM-ZbhBUgG-s1-ycYIe-31" target="Ys8VjhH2vFzZ4irLXQsm-36" edge="1">
          <mxGeometry relative="1" as="geometry" />
        </mxCell>
        <mxCell id="EvM-ZbhBUgG-s1-ycYIe-31" value="Control unit" style="rounded=1;whiteSpace=wrap;html=1;fontSize=16;points=[[0,0,0,0,0],[0,0.25,0,0,0],[0,0.5,0,0,0],[0,0.75,0,0,0],[0,1,0,0,0],[0.25,0,0,0,0],[0.25,1,0,0,0],[0.5,0,0,0,0],[0.5,1,0,0,0],[0.75,0,0,0,0],[0.75,1,0,0,0],[1,0,0,0,0],[1,0.13,0,0,0],[1,0.25,0,0,0],[1,0.38,0,0,0],[1,0.5,0,0,0],[1,0.63,0,0,0],[1,0.75,0,0,0],[1,0.87,0,0,0],[1,1,0,0,0]];fontStyle=1;movable=0;resizable=0;rotatable=0;deletable=0;editable=0;locked=1;connectable=0;" parent="1" vertex="1">
          <mxGeometry x="387.5" y="20" width="210" height="210" as="geometry" />
        </mxCell>
        <mxCell id="EvM-ZbhBUgG-s1-ycYIe-32" style="edgeStyle=orthogonalEdgeStyle;rounded=0;orthogonalLoop=1;jettySize=auto;html=1;exitX=1;exitY=0.5;exitDx=0;exitDy=0;entryX=0;entryY=0.5;entryDx=0;entryDy=0;fontSize=16;fontStyle=1;movable=0;resizable=0;rotatable=0;deletable=0;editable=0;locked=1;connectable=0;" parent="1" source="EvM-ZbhBUgG-s1-ycYIe-13" target="EvM-ZbhBUgG-s1-ycYIe-31" edge="1">
          <mxGeometry relative="1" as="geometry" />
        </mxCell>
        <mxCell id="Ys8VjhH2vFzZ4irLXQsm-27" style="edgeStyle=orthogonalEdgeStyle;rounded=0;orthogonalLoop=1;jettySize=auto;html=1;exitX=1;exitY=0.25;exitDx=0;exitDy=0;entryX=0;entryY=0.5;entryDx=0;entryDy=0;movable=0;resizable=0;rotatable=0;deletable=0;editable=0;locked=1;connectable=0;" parent="1" source="EvM-ZbhBUgG-s1-ycYIe-36" target="MULMhlW8bTZCU8NpR_TZ-9" edge="1">
          <mxGeometry relative="1" as="geometry">
            <Array as="points">
              <mxPoint x="617.5" y="673" />
              <mxPoint x="617.5" y="560" />
            </Array>
          </mxGeometry>
        </mxCell>
        <mxCell id="EvM-ZbhBUgG-s1-ycYIe-36" value="GPRs" style="rounded=1;whiteSpace=wrap;html=1;fontSize=16;fontStyle=1;movable=0;resizable=0;rotatable=0;deletable=0;editable=0;locked=1;connectable=0;" parent="1" vertex="1">
          <mxGeometry x="377.5" y="630" width="190" height="170" as="geometry" />
        </mxCell>
        <mxCell id="EvM-ZbhBUgG-s1-ycYIe-42" value="Rd" style="text;html=1;align=center;verticalAlign=middle;whiteSpace=wrap;rounded=0;fontSize=16;fontStyle=1;movable=0;resizable=0;rotatable=0;deletable=0;editable=0;locked=1;connectable=0;" parent="1" vertex="1">
          <mxGeometry x="377.5" y="647.5" width="60" height="30" as="geometry" />
        </mxCell>
        <mxCell id="EvM-ZbhBUgG-s1-ycYIe-43" value="Rs1" style="text;html=1;align=center;verticalAlign=middle;whiteSpace=wrap;rounded=0;fontSize=16;fontStyle=1;movable=0;resizable=0;rotatable=0;deletable=0;editable=0;locked=1;connectable=0;" parent="1" vertex="1">
          <mxGeometry x="377.5" y="695" width="60" height="30" as="geometry" />
        </mxCell>
        <mxCell id="EvM-ZbhBUgG-s1-ycYIe-44" value="Rs2" style="text;html=1;align=center;verticalAlign=middle;whiteSpace=wrap;rounded=0;fontSize=16;fontStyle=1;movable=0;resizable=0;rotatable=0;deletable=0;editable=0;locked=1;connectable=0;" parent="1" vertex="1">
          <mxGeometry x="377.5" y="740" width="60" height="30" as="geometry" />
        </mxCell>
        <mxCell id="EvM-ZbhBUgG-s1-ycYIe-45" value="Rs2_data" style="text;html=1;align=center;verticalAlign=middle;whiteSpace=wrap;rounded=0;fontSize=16;fontStyle=1;movable=0;resizable=0;rotatable=0;deletable=0;editable=0;locked=1;connectable=0;" parent="1" vertex="1">
          <mxGeometry x="607.5" y="730" width="60" height="30" as="geometry" />
        </mxCell>
        <mxCell id="EvM-ZbhBUgG-s1-ycYIe-47" value="Rs1_data" style="text;html=1;align=center;verticalAlign=middle;whiteSpace=wrap;rounded=0;fontSize=16;fontStyle=1;movable=0;resizable=0;rotatable=0;deletable=0;editable=0;locked=1;connectable=0;" parent="1" vertex="1">
          <mxGeometry x="577.5" y="670" width="60" height="30" as="geometry" />
        </mxCell>
        <mxCell id="MULMhlW8bTZCU8NpR_TZ-3" style="edgeStyle=orthogonalEdgeStyle;rounded=0;orthogonalLoop=1;jettySize=auto;html=1;exitX=1;exitY=0.5;exitDx=0;exitDy=0;fontSize=16;entryX=0;entryY=0.5;entryDx=0;entryDy=0;fontStyle=1;movable=0;resizable=0;rotatable=0;deletable=0;editable=0;locked=1;connectable=0;" parent="1" source="EvM-ZbhBUgG-s1-ycYIe-48" edge="1">
          <mxGeometry relative="1" as="geometry">
            <mxPoint x="720" y="520" as="targetPoint" />
          </mxGeometry>
        </mxCell>
        <mxCell id="Ys8VjhH2vFzZ4irLXQsm-17" style="edgeStyle=orthogonalEdgeStyle;rounded=0;orthogonalLoop=1;jettySize=auto;html=1;exitX=1;exitY=0.5;exitDx=0;exitDy=0;entryX=1;entryY=0.25;entryDx=0;entryDy=0;movable=0;resizable=0;rotatable=0;deletable=0;editable=0;locked=1;connectable=0;" parent="1" source="EvM-ZbhBUgG-s1-ycYIe-48" target="Ys8VjhH2vFzZ4irLXQsm-14" edge="1">
          <mxGeometry relative="1" as="geometry">
            <Array as="points">
              <mxPoint x="637.5" y="350" />
              <mxPoint x="637.5" y="474" />
            </Array>
          </mxGeometry>
        </mxCell>
        <mxCell id="EvM-ZbhBUgG-s1-ycYIe-48" value="EXP" style="rounded=1;whiteSpace=wrap;html=1;fontSize=16;fontStyle=1;movable=0;resizable=0;rotatable=0;deletable=0;editable=0;locked=1;connectable=0;" parent="1" vertex="1">
          <mxGeometry x="447.5" y="311.25" width="150" height="77.5" as="geometry" />
        </mxCell>
        <mxCell id="MULMhlW8bTZCU8NpR_TZ-1" value="ExtOp" style="text;html=1;align=center;verticalAlign=middle;resizable=0;points=[];autosize=1;strokeColor=none;fillColor=none;fontColor=#ee1717;fontSize=16;fontStyle=1;movable=0;rotatable=0;deletable=0;editable=0;locked=1;connectable=0;" parent="1" vertex="1">
          <mxGeometry x="490" y="280" width="70" height="30" as="geometry" />
        </mxCell>
        <mxCell id="MULMhlW8bTZCU8NpR_TZ-7" value="imm" style="text;html=1;align=center;verticalAlign=middle;whiteSpace=wrap;rounded=0;fontSize=16;fontStyle=1;movable=0;resizable=0;rotatable=0;deletable=0;editable=0;locked=1;connectable=0;" parent="1" vertex="1">
          <mxGeometry x="620" y="322.5" width="60" height="30" as="geometry" />
        </mxCell>
        <mxCell id="MULMhlW8bTZCU8NpR_TZ-22" style="edgeStyle=orthogonalEdgeStyle;rounded=0;orthogonalLoop=1;jettySize=auto;html=1;exitX=1;exitY=0.5;exitDx=0;exitDy=0;entryX=0;entryY=0.25;entryDx=0;entryDy=0;fontSize=16;fontStyle=1;movable=0;resizable=0;rotatable=0;deletable=0;editable=0;locked=1;connectable=0;" parent="1" source="EvM-ZbhBUgG-s1-ycYIe-13" target="EvM-ZbhBUgG-s1-ycYIe-48" edge="1">
          <mxGeometry relative="1" as="geometry">
            <Array as="points">
              <mxPoint x="337.5" y="260" />
              <mxPoint x="337.5" y="331" />
            </Array>
          </mxGeometry>
        </mxCell>
        <mxCell id="MULMhlW8bTZCU8NpR_TZ-43" value="A&lt;div style=&quot;font-size: 16px;&quot;&gt;L&lt;/div&gt;&lt;div style=&quot;font-size: 16px;&quot;&gt;U&lt;/div&gt;" style="shape=trapezoid;perimeter=trapezoidPerimeter;whiteSpace=wrap;html=1;fixedSize=1;direction=south;fontSize=16;fontStyle=1;movable=0;resizable=0;rotatable=0;deletable=0;editable=0;locked=1;connectable=0;" parent="1" vertex="1">
          <mxGeometry x="957.5" y="557.5" width="60" height="120" as="geometry" />
        </mxCell>
        <mxCell id="MULMhlW8bTZCU8NpR_TZ-61" style="edgeStyle=orthogonalEdgeStyle;rounded=0;orthogonalLoop=1;jettySize=auto;html=1;exitX=1;exitY=0.5;exitDx=0;exitDy=0;entryX=0;entryY=0.75;entryDx=0;entryDy=0;fontSize=16;fontStyle=1;movable=0;resizable=0;rotatable=0;deletable=0;editable=0;locked=1;connectable=0;" parent="1" source="MULMhlW8bTZCU8NpR_TZ-37" target="MULMhlW8bTZCU8NpR_TZ-60" edge="1">
          <mxGeometry relative="1" as="geometry" />
        </mxCell>
        <mxCell id="MULMhlW8bTZCU8NpR_TZ-60" value="Memory" style="rounded=1;whiteSpace=wrap;html=1;fontSize=16;fontStyle=1;movable=0;resizable=0;rotatable=0;deletable=0;editable=0;locked=1;connectable=0;" parent="1" vertex="1">
          <mxGeometry x="1297.5" y="522.5" width="200" height="125" as="geometry" />
        </mxCell>
        <mxCell id="MULMhlW8bTZCU8NpR_TZ-62" value="DataIn" style="text;html=1;align=center;verticalAlign=middle;whiteSpace=wrap;rounded=0;fontSize=16;fontStyle=1;movable=0;resizable=0;rotatable=0;deletable=0;editable=0;locked=1;connectable=0;" parent="1" vertex="1">
          <mxGeometry x="1297.5" y="600" width="60" height="30" as="geometry" />
        </mxCell>
        <mxCell id="MULMhlW8bTZCU8NpR_TZ-64" value="Addr" style="text;html=1;align=center;verticalAlign=middle;whiteSpace=wrap;rounded=0;fontSize=16;fontStyle=1;dashed=1;dashPattern=1 2;strokeWidth=2;movable=0;resizable=0;rotatable=0;deletable=0;editable=0;locked=1;connectable=0;" parent="1" vertex="1">
          <mxGeometry x="1297.5" y="570" width="60" height="30" as="geometry" />
        </mxCell>
        <mxCell id="EvM-ZbhBUgG-s1-ycYIe-27" value="" style="rounded=0;whiteSpace=wrap;html=1;fontSize=16;fillColor=#e1d5e7;strokeColor=#9673a6;container=0;fontStyle=1;movable=0;resizable=0;rotatable=0;deletable=0;editable=0;locked=1;connectable=0;" parent="1" vertex="1">
          <mxGeometry x="717.5" y="40" width="80" height="770" as="geometry" />
        </mxCell>
        <mxCell id="EvM-ZbhBUgG-s1-ycYIe-29" value="ID/EX" style="text;html=1;align=center;verticalAlign=middle;resizable=0;points=[];autosize=1;strokeColor=none;fillColor=none;fontSize=16;container=0;fontStyle=1;movable=0;rotatable=0;deletable=0;editable=0;locked=1;connectable=0;" parent="1" vertex="1">
          <mxGeometry x="722.5" width="70" height="30" as="geometry" />
        </mxCell>
        <mxCell id="EvM-ZbhBUgG-s1-ycYIe-30" value="imm" style="rounded=0;whiteSpace=wrap;html=1;fontSize=16;fillColor=#d5e8d4;strokeColor=#82b366;container=0;fontStyle=1;movable=0;resizable=0;rotatable=0;deletable=0;editable=0;locked=1;connectable=0;" parent="1" vertex="1">
          <mxGeometry x="718.5" y="335" width="80" height="30" as="geometry" />
        </mxCell>
        <mxCell id="Ys8VjhH2vFzZ4irLXQsm-30" style="edgeStyle=orthogonalEdgeStyle;rounded=0;orthogonalLoop=1;jettySize=auto;html=1;exitX=1;exitY=0.5;exitDx=0;exitDy=0;entryX=0.75;entryY=1;entryDx=0;entryDy=0;movable=0;resizable=0;rotatable=0;deletable=0;editable=0;locked=1;connectable=0;" parent="1" source="MULMhlW8bTZCU8NpR_TZ-9" target="Ys8VjhH2vFzZ4irLXQsm-28" edge="1">
          <mxGeometry relative="1" as="geometry" />
        </mxCell>
        <mxCell id="MULMhlW8bTZCU8NpR_TZ-9" value="Rs1" style="rounded=0;whiteSpace=wrap;html=1;fontSize=16;fillColor=#d5e8d4;strokeColor=#82b366;container=0;fontStyle=1;movable=0;resizable=0;rotatable=0;deletable=0;editable=0;locked=1;connectable=0;" parent="1" vertex="1">
          <mxGeometry x="716" y="545" width="80" height="30" as="geometry" />
        </mxCell>
        <mxCell id="Ys8VjhH2vFzZ4irLXQsm-31" style="edgeStyle=orthogonalEdgeStyle;rounded=0;orthogonalLoop=1;jettySize=auto;html=1;exitX=1;exitY=0.5;exitDx=0;exitDy=0;entryX=0.25;entryY=1;entryDx=0;entryDy=0;movable=0;resizable=0;rotatable=0;deletable=0;editable=0;locked=1;connectable=0;" parent="1" source="MULMhlW8bTZCU8NpR_TZ-19" target="Ys8VjhH2vFzZ4irLXQsm-28" edge="1">
          <mxGeometry relative="1" as="geometry" />
        </mxCell>
        <mxCell id="MULMhlW8bTZCU8NpR_TZ-19" value="PC" style="rounded=0;whiteSpace=wrap;html=1;fontSize=16;fillColor=#d5e8d4;strokeColor=#82b366;container=0;fontStyle=1;movable=0;resizable=0;rotatable=0;deletable=0;editable=0;locked=1;connectable=0;" parent="1" vertex="1">
          <mxGeometry x="718.5" y="485" width="80" height="30" as="geometry" />
        </mxCell>
        <mxCell id="MULMhlW8bTZCU8NpR_TZ-74" style="edgeStyle=orthogonalEdgeStyle;rounded=0;orthogonalLoop=1;jettySize=auto;html=1;exitX=1;exitY=0.5;exitDx=0;exitDy=0;entryX=0;entryY=0.5;entryDx=0;entryDy=0;strokeWidth=3;strokeColor=#FF0000;dashed=1;dashPattern=1 4;movable=0;resizable=0;rotatable=0;deletable=0;editable=0;locked=1;connectable=0;" parent="1" source="MULMhlW8bTZCU8NpR_TZ-67" target="MULMhlW8bTZCU8NpR_TZ-73" edge="1">
          <mxGeometry relative="1" as="geometry" />
        </mxCell>
        <mxCell id="MULMhlW8bTZCU8NpR_TZ-67" value="&lt;span style=&quot;font-size: 16px;&quot;&gt;&lt;font style=&quot;font-size: 16px;&quot;&gt;MemWe&lt;/font&gt;&lt;/span&gt;" style="rounded=0;whiteSpace=wrap;html=1;fillColor=#e51400;strokeColor=#B20000;fontColor=#ffffff;fontSize=16;fontStyle=1;movable=0;resizable=0;rotatable=0;deletable=0;editable=0;locked=1;connectable=0;" parent="1" vertex="1">
          <mxGeometry x="716" y="50" width="80" height="30" as="geometry" />
        </mxCell>
        <mxCell id="MULMhlW8bTZCU8NpR_TZ-78" style="edgeStyle=orthogonalEdgeStyle;rounded=0;orthogonalLoop=1;jettySize=auto;html=1;exitX=1;exitY=0.5;exitDx=0;exitDy=0;entryX=0;entryY=0.5;entryDx=0;entryDy=0;strokeWidth=3;strokeColor=#FF0000;dashed=1;dashPattern=1 4;movable=0;resizable=0;rotatable=0;deletable=0;editable=0;locked=1;connectable=0;" parent="1" source="MULMhlW8bTZCU8NpR_TZ-68" target="MULMhlW8bTZCU8NpR_TZ-77" edge="1">
          <mxGeometry relative="1" as="geometry" />
        </mxCell>
        <mxCell id="MULMhlW8bTZCU8NpR_TZ-68" value="MemtoReg" style="rounded=0;whiteSpace=wrap;html=1;fillColor=#e51400;strokeColor=#B20000;fontColor=#ffffff;fontSize=16;fontStyle=1;movable=0;resizable=0;rotatable=0;deletable=0;editable=0;locked=1;connectable=0;" parent="1" vertex="1">
          <mxGeometry x="716" y="80" width="80" height="30" as="geometry" />
        </mxCell>
        <mxCell id="Ys8VjhH2vFzZ4irLXQsm-47" style="edgeStyle=orthogonalEdgeStyle;rounded=0;orthogonalLoop=1;jettySize=auto;html=1;exitX=1;exitY=0.5;exitDx=0;exitDy=0;entryX=0;entryY=0.5;entryDx=0;entryDy=0;dashed=1;dashPattern=1 2;strokeWidth=3;strokeColor=#FF0000;movable=0;resizable=0;rotatable=0;deletable=0;editable=0;locked=1;connectable=0;" parent="1" source="MULMhlW8bTZCU8NpR_TZ-69" target="MULMhlW8bTZCU8NpR_TZ-43" edge="1">
          <mxGeometry relative="1" as="geometry" />
        </mxCell>
        <mxCell id="MULMhlW8bTZCU8NpR_TZ-69" value="&lt;span style=&quot;font-size: 16px;&quot;&gt;&lt;font style=&quot;font-size: 16px;&quot;&gt;AluOp&lt;/font&gt;&lt;/span&gt;" style="rounded=0;whiteSpace=wrap;html=1;fillColor=#e51400;strokeColor=#B20000;fontColor=#ffffff;fontSize=16;fontStyle=1;movable=0;resizable=0;rotatable=0;deletable=0;editable=0;locked=1;connectable=0;" parent="1" vertex="1">
          <mxGeometry x="716" y="110" width="80" height="30" as="geometry" />
        </mxCell>
        <mxCell id="MULMhlW8bTZCU8NpR_TZ-75" style="edgeStyle=orthogonalEdgeStyle;rounded=0;orthogonalLoop=1;jettySize=auto;html=1;exitX=1;exitY=0.5;exitDx=0;exitDy=0;entryX=0.75;entryY=0;entryDx=0;entryDy=0;strokeColor=#FF0000;strokeWidth=3;dashed=1;dashPattern=1 2;movable=0;resizable=0;rotatable=0;deletable=0;editable=0;locked=1;connectable=0;" parent="1" source="MULMhlW8bTZCU8NpR_TZ-73" target="MULMhlW8bTZCU8NpR_TZ-60" edge="1">
          <mxGeometry relative="1" as="geometry" />
        </mxCell>
        <mxCell id="MULMhlW8bTZCU8NpR_TZ-76" value="We" style="text;html=1;align=center;verticalAlign=middle;resizable=0;points=[];autosize=1;strokeColor=none;fillColor=none;fontSize=16;fontStyle=1;dashed=1;dashPattern=1 2;strokeWidth=2;movable=0;rotatable=0;deletable=0;editable=0;locked=1;connectable=0;" parent="1" vertex="1">
          <mxGeometry x="1422.5" y="525" width="50" height="30" as="geometry" />
        </mxCell>
        <mxCell id="MULMhlW8bTZCU8NpR_TZ-81" value="RegWe" style="text;html=1;align=center;verticalAlign=middle;resizable=0;points=[];autosize=1;strokeColor=none;fillColor=none;fontColor=#ee1717;fontSize=16;fontStyle=1;movable=0;rotatable=0;deletable=0;editable=0;locked=1;connectable=0;" parent="1" vertex="1">
          <mxGeometry x="527.5" y="590" width="80" height="30" as="geometry" />
        </mxCell>
        <mxCell id="MULMhlW8bTZCU8NpR_TZ-102" style="edgeStyle=orthogonalEdgeStyle;rounded=0;orthogonalLoop=1;jettySize=auto;html=1;exitX=1;exitY=0.25;exitDx=0;exitDy=0;entryX=0;entryY=0.5;entryDx=0;entryDy=0;fillColor=#e51400;strokeColor=#B20000;strokeWidth=3;dashed=1;dashPattern=1 2;movable=0;resizable=0;rotatable=0;deletable=0;editable=0;locked=1;connectable=0;" parent="1" source="MULMhlW8bTZCU8NpR_TZ-93" target="MULMhlW8bTZCU8NpR_TZ-99" edge="1">
          <mxGeometry relative="1" as="geometry" />
        </mxCell>
        <mxCell id="Ys8VjhH2vFzZ4irLXQsm-5" style="edgeStyle=orthogonalEdgeStyle;rounded=0;orthogonalLoop=1;jettySize=auto;html=1;exitX=1;exitY=0.5;exitDx=0;exitDy=0;movable=0;resizable=0;rotatable=0;deletable=0;editable=0;locked=1;connectable=0;" parent="1" source="MULMhlW8bTZCU8NpR_TZ-97" edge="1">
          <mxGeometry relative="1" as="geometry">
            <mxPoint x="1597.5" y="616" as="targetPoint" />
          </mxGeometry>
        </mxCell>
        <mxCell id="MULMhlW8bTZCU8NpR_TZ-97" value="OUT" style="text;html=1;align=center;verticalAlign=middle;whiteSpace=wrap;rounded=0;fontSize=16;fontStyle=1;movable=0;resizable=0;rotatable=0;deletable=0;editable=0;locked=1;connectable=0;" parent="1" vertex="1">
          <mxGeometry x="1437.5" y="600" width="60" height="30" as="geometry" />
        </mxCell>
        <mxCell id="MULMhlW8bTZCU8NpR_TZ-101" style="edgeStyle=orthogonalEdgeStyle;rounded=0;orthogonalLoop=1;jettySize=auto;html=1;exitX=1;exitY=0.5;exitDx=0;exitDy=0;entryX=0.5;entryY=1;entryDx=0;entryDy=0;movable=0;resizable=0;rotatable=0;deletable=0;editable=0;locked=1;connectable=0;" parent="1" source="MULMhlW8bTZCU8NpR_TZ-98" target="MULMhlW8bTZCU8NpR_TZ-99" edge="1">
          <mxGeometry relative="1" as="geometry" />
        </mxCell>
        <mxCell id="Ys8VjhH2vFzZ4irLXQsm-78" style="edgeStyle=orthogonalEdgeStyle;rounded=0;orthogonalLoop=1;jettySize=auto;html=1;exitX=0.5;exitY=0;exitDx=0;exitDy=0;entryX=0.25;entryY=1;entryDx=0;entryDy=0;strokeColor=#CC6600;strokeWidth=3;movable=0;resizable=0;rotatable=0;deletable=0;editable=0;locked=1;connectable=0;" parent="1" source="MULMhlW8bTZCU8NpR_TZ-99" target="MULMhlW8bTZCU8NpR_TZ-105" edge="1">
          <mxGeometry relative="1" as="geometry">
            <Array as="points">
              <mxPoint x="1867.5" y="600" />
              <mxPoint x="1867.5" y="860" />
              <mxPoint x="452.5" y="860" />
            </Array>
          </mxGeometry>
        </mxCell>
        <mxCell id="MULMhlW8bTZCU8NpR_TZ-99" value="M&lt;div&gt;U&lt;/div&gt;&lt;div&gt;X&lt;/div&gt;" style="shape=trapezoid;perimeter=trapezoidPerimeter;whiteSpace=wrap;html=1;fixedSize=1;direction=south;fontSize=16;fontStyle=1;movable=0;resizable=0;rotatable=0;deletable=0;editable=0;locked=1;connectable=0;" parent="1" vertex="1">
          <mxGeometry x="1777.5" y="505" width="70" height="190" as="geometry" />
        </mxCell>
        <mxCell id="MULMhlW8bTZCU8NpR_TZ-103" value="MemtoReg" style="text;html=1;align=center;verticalAlign=middle;resizable=0;points=[];autosize=1;strokeColor=none;fillColor=none;fontColor=#ee1717;fontSize=16;fontStyle=1;movable=0;rotatable=0;deletable=0;editable=0;locked=1;connectable=0;" parent="1" vertex="1">
          <mxGeometry x="1787.5" y="465" width="100" height="30" as="geometry" />
        </mxCell>
        <mxCell id="MULMhlW8bTZCU8NpR_TZ-105" value="Write_Data" style="text;html=1;align=center;verticalAlign=middle;whiteSpace=wrap;rounded=0;fontSize=16;fontStyle=1;movable=0;resizable=0;rotatable=0;deletable=0;editable=0;locked=1;connectable=0;" parent="1" vertex="1">
          <mxGeometry x="437.5" y="770" width="60" height="30" as="geometry" />
        </mxCell>
        <mxCell id="MULMhlW8bTZCU8NpR_TZ-109" style="edgeStyle=orthogonalEdgeStyle;rounded=0;orthogonalLoop=1;jettySize=auto;html=1;exitX=1;exitY=0.5;exitDx=0;exitDy=0;entryX=0;entryY=0.5;entryDx=0;entryDy=0;strokeWidth=3;fillColor=#e51400;strokeColor=#B20000;dashed=1;dashPattern=1 2;movable=0;resizable=0;rotatable=0;deletable=0;editable=0;locked=1;connectable=0;" parent="1" source="MULMhlW8bTZCU8NpR_TZ-77" target="MULMhlW8bTZCU8NpR_TZ-93" edge="1">
          <mxGeometry relative="1" as="geometry" />
        </mxCell>
        <mxCell id="EvM-ZbhBUgG-s1-ycYIe-12" value="" style="rounded=0;whiteSpace=wrap;html=1;fontSize=16;fillColor=#e1d5e7;strokeColor=#9673a6;container=0;fontStyle=1;movable=0;resizable=0;rotatable=0;deletable=0;editable=0;locked=1;connectable=0;" parent="1" vertex="1">
          <mxGeometry x="217.5" y="40" width="80" height="770" as="geometry" />
        </mxCell>
        <mxCell id="EvM-ZbhBUgG-s1-ycYIe-13" value="inst" style="rounded=0;whiteSpace=wrap;html=1;fontSize=16;fillColor=#d5e8d4;strokeColor=#82b366;container=0;fontStyle=1;movable=0;resizable=0;rotatable=0;deletable=0;editable=0;locked=1;connectable=0;" parent="1" vertex="1">
          <mxGeometry x="217.5" y="245" width="80" height="30" as="geometry" />
        </mxCell>
        <mxCell id="EvM-ZbhBUgG-s1-ycYIe-14" value="IF/ID" style="text;html=1;align=center;verticalAlign=middle;resizable=0;points=[];autosize=1;strokeColor=none;fillColor=none;fontSize=16;container=0;fontStyle=1;movable=0;rotatable=0;deletable=0;editable=0;locked=1;connectable=0;" parent="1" vertex="1">
          <mxGeometry x="227.5" width="60" height="30" as="geometry" />
        </mxCell>
        <mxCell id="EvM-ZbhBUgG-s1-ycYIe-15" value="PC" style="rounded=0;whiteSpace=wrap;html=1;fontSize=16;fillColor=#d5e8d4;strokeColor=#82b366;container=0;fontStyle=1;movable=0;resizable=0;rotatable=0;deletable=0;editable=0;locked=1;connectable=0;" parent="1" vertex="1">
          <mxGeometry x="218.5" y="480" width="80" height="30" as="geometry" />
        </mxCell>
        <mxCell id="MULMhlW8bTZCU8NpR_TZ-32" value="" style="rounded=0;whiteSpace=wrap;html=1;fontSize=16;fillColor=#e1d5e7;strokeColor=#9673a6;container=0;fontStyle=1;movable=0;resizable=0;rotatable=0;deletable=0;editable=0;locked=1;connectable=0;" parent="1" vertex="1">
          <mxGeometry x="1112.5" y="40" width="80" height="770" as="geometry" />
        </mxCell>
        <mxCell id="MULMhlW8bTZCU8NpR_TZ-34" value="EX/MEM" style="text;html=1;align=center;verticalAlign=middle;resizable=0;points=[];autosize=1;strokeColor=none;fillColor=none;fontSize=16;container=0;fontStyle=1;movable=0;rotatable=0;deletable=0;editable=0;locked=1;connectable=0;" parent="1" vertex="1">
          <mxGeometry x="1107.5" width="90" height="30" as="geometry" />
        </mxCell>
        <mxCell id="MULMhlW8bTZCU8NpR_TZ-37" value="Rs2" style="rounded=0;whiteSpace=wrap;html=1;fontSize=16;fillColor=#d5e8d4;strokeColor=#82b366;container=0;fontStyle=1;movable=0;resizable=0;rotatable=0;deletable=0;editable=0;locked=1;connectable=0;" parent="1" vertex="1">
          <mxGeometry x="1113.5" y="600" width="80" height="30" as="geometry" />
        </mxCell>
        <mxCell id="Ys8VjhH2vFzZ4irLXQsm-59" style="edgeStyle=orthogonalEdgeStyle;rounded=0;orthogonalLoop=1;jettySize=auto;html=1;exitX=1;exitY=0.5;exitDx=0;exitDy=0;entryX=0;entryY=0.5;entryDx=0;entryDy=0;movable=0;resizable=0;rotatable=0;deletable=0;editable=0;locked=1;connectable=0;" parent="1" source="MULMhlW8bTZCU8NpR_TZ-58" target="MULMhlW8bTZCU8NpR_TZ-64" edge="1">
          <mxGeometry relative="1" as="geometry" />
        </mxCell>
        <mxCell id="Ys8VjhH2vFzZ4irLXQsm-60" style="edgeStyle=orthogonalEdgeStyle;rounded=0;orthogonalLoop=1;jettySize=auto;html=1;entryX=0;entryY=0.5;entryDx=0;entryDy=0;strokeColor=#009900;strokeWidth=3;movable=0;resizable=0;rotatable=0;deletable=0;editable=0;locked=1;connectable=0;" parent="1" source="MULMhlW8bTZCU8NpR_TZ-58" target="MULMhlW8bTZCU8NpR_TZ-91" edge="1">
          <mxGeometry relative="1" as="geometry">
            <Array as="points">
              <mxPoint x="1237.5" y="585" />
              <mxPoint x="1237.5" y="495" />
            </Array>
          </mxGeometry>
        </mxCell>
        <mxCell id="MULMhlW8bTZCU8NpR_TZ-58" value="Result" style="rounded=0;whiteSpace=wrap;html=1;fontSize=16;fillColor=#d5e8d4;strokeColor=#82b366;container=0;fontStyle=1;movable=0;resizable=0;rotatable=0;deletable=0;editable=0;locked=1;connectable=0;" parent="1" vertex="1">
          <mxGeometry x="1113.5" y="570" width="80" height="30" as="geometry" />
        </mxCell>
        <mxCell id="MULMhlW8bTZCU8NpR_TZ-73" value="&lt;span style=&quot;font-size: 16px;&quot;&gt;&lt;font style=&quot;font-size: 16px;&quot;&gt;MemWe&lt;/font&gt;&lt;/span&gt;" style="rounded=0;whiteSpace=wrap;html=1;fillColor=#e51400;strokeColor=#B20000;fontColor=#ffffff;fontSize=16;fontStyle=1;movable=0;resizable=0;rotatable=0;deletable=0;editable=0;locked=1;connectable=0;" parent="1" vertex="1">
          <mxGeometry x="1111" y="50" width="80" height="30" as="geometry" />
        </mxCell>
        <mxCell id="MULMhlW8bTZCU8NpR_TZ-77" value="&lt;span style=&quot;font-size: 16px;&quot;&gt;&lt;font style=&quot;font-size: 16px;&quot;&gt;MemtoReg&lt;/font&gt;&lt;/span&gt;" style="rounded=0;whiteSpace=wrap;html=1;fillColor=#e51400;strokeColor=#B20000;fontColor=#ffffff;fontSize=16;fontStyle=1;movable=0;resizable=0;rotatable=0;deletable=0;editable=0;locked=1;connectable=0;" parent="1" vertex="1">
          <mxGeometry x="1111" y="80" width="80" height="30" as="geometry" />
        </mxCell>
        <mxCell id="MULMhlW8bTZCU8NpR_TZ-107" value="&lt;span style=&quot;font-size: 16px;&quot;&gt;&lt;font style=&quot;font-size: 16px;&quot;&gt;....&lt;/font&gt;&lt;/span&gt;" style="rounded=0;whiteSpace=wrap;html=1;fillColor=#e51400;strokeColor=#B20000;fontColor=#ffffff;fontSize=16;fontStyle=1;movable=0;resizable=0;rotatable=0;deletable=0;editable=0;locked=1;connectable=0;" parent="1" vertex="1">
          <mxGeometry x="1111" y="110" width="80" height="30" as="geometry" />
        </mxCell>
        <mxCell id="MULMhlW8bTZCU8NpR_TZ-85" value="" style="rounded=0;whiteSpace=wrap;html=1;fontSize=16;fillColor=#e1d5e7;strokeColor=#9673a6;container=0;fontStyle=1;movable=0;resizable=0;rotatable=0;deletable=0;editable=0;locked=1;connectable=0;" parent="1" vertex="1">
          <mxGeometry x="1602.5" y="40" width="80" height="770" as="geometry" />
        </mxCell>
        <mxCell id="MULMhlW8bTZCU8NpR_TZ-87" value="MEM/WB" style="text;html=1;align=center;verticalAlign=middle;resizable=0;points=[];autosize=1;strokeColor=none;fillColor=none;fontSize=16;container=0;fontStyle=1;movable=0;rotatable=0;deletable=0;editable=0;locked=1;connectable=0;" parent="1" vertex="1">
          <mxGeometry x="1597.5" width="90" height="30" as="geometry" />
        </mxCell>
        <mxCell id="Ys8VjhH2vFzZ4irLXQsm-72" style="edgeStyle=orthogonalEdgeStyle;rounded=0;orthogonalLoop=1;jettySize=auto;html=1;exitX=1;exitY=0.5;exitDx=0;exitDy=0;entryX=0;entryY=0.5;entryDx=0;entryDy=0;strokeColor=#CC6600;strokeWidth=3;movable=0;resizable=0;rotatable=0;deletable=0;editable=0;locked=1;connectable=0;" parent="1" source="MULMhlW8bTZCU8NpR_TZ-91" target="Ys8VjhH2vFzZ4irLXQsm-22" edge="1">
          <mxGeometry relative="1" as="geometry">
            <Array as="points">
              <mxPoint x="1717.5" y="495" />
              <mxPoint x="1717.5" y="900" />
              <mxPoint x="337.5" y="900" />
              <mxPoint x="337.5" y="525" />
            </Array>
          </mxGeometry>
        </mxCell>
        <mxCell id="MULMhlW8bTZCU8NpR_TZ-91" value="Result" style="rounded=0;whiteSpace=wrap;html=1;fontSize=16;fillColor=#d5e8d4;strokeColor=#82b366;container=0;fontStyle=1;movable=0;resizable=0;rotatable=0;deletable=0;editable=0;locked=1;connectable=0;" parent="1" vertex="1">
          <mxGeometry x="1601" y="480" width="80" height="30" as="geometry" />
        </mxCell>
        <mxCell id="MULMhlW8bTZCU8NpR_TZ-93" value="&lt;span style=&quot;font-size: 16px;&quot;&gt;&lt;font style=&quot;font-size: 16px;&quot;&gt;MemtoReg&lt;/font&gt;&lt;/span&gt;" style="rounded=0;whiteSpace=wrap;html=1;fillColor=#e51400;strokeColor=#B20000;fontColor=#ffffff;fontSize=16;fontStyle=1;movable=0;resizable=0;rotatable=0;deletable=0;editable=0;locked=1;connectable=0;" parent="1" vertex="1">
          <mxGeometry x="1601" y="80" width="80" height="30" as="geometry" />
        </mxCell>
        <mxCell id="MULMhlW8bTZCU8NpR_TZ-98" value="Mem_OUT" style="rounded=0;whiteSpace=wrap;html=1;fontSize=16;fillColor=#d5e8d4;strokeColor=#82b366;container=0;fontStyle=1;movable=0;resizable=0;rotatable=0;deletable=0;editable=0;locked=1;connectable=0;" parent="1" vertex="1">
          <mxGeometry x="1601" y="600" width="80" height="30" as="geometry" />
        </mxCell>
        <mxCell id="MULMhlW8bTZCU8NpR_TZ-108" value="&lt;span style=&quot;font-size: 16px;&quot;&gt;&lt;font style=&quot;font-size: 16px;&quot;&gt;....&lt;/font&gt;&lt;/span&gt;" style="rounded=0;whiteSpace=wrap;html=1;fillColor=#e51400;strokeColor=#B20000;fontColor=#ffffff;fontSize=16;fontStyle=1;movable=0;resizable=0;rotatable=0;deletable=0;editable=0;locked=1;connectable=0;" parent="1" vertex="1">
          <mxGeometry x="1601" y="110" width="80" height="30" as="geometry" />
        </mxCell>
        <mxCell id="Ys8VjhH2vFzZ4irLXQsm-10" style="edgeStyle=orthogonalEdgeStyle;rounded=0;orthogonalLoop=1;jettySize=auto;html=1;exitX=1;exitY=0.75;exitDx=0;exitDy=0;entryX=-0.031;entryY=0.931;entryDx=0;entryDy=0;entryPerimeter=0;movable=0;resizable=0;rotatable=0;deletable=0;editable=0;locked=1;connectable=0;" parent="1" source="EvM-ZbhBUgG-s1-ycYIe-36" target="EvM-ZbhBUgG-s1-ycYIe-27" edge="1">
          <mxGeometry relative="1" as="geometry" />
        </mxCell>
        <mxCell id="Ys8VjhH2vFzZ4irLXQsm-39" style="edgeStyle=orthogonalEdgeStyle;rounded=0;orthogonalLoop=1;jettySize=auto;html=1;exitX=1;exitY=0.75;exitDx=0;exitDy=0;entryX=0;entryY=0.5;entryDx=0;entryDy=0;movable=0;resizable=0;rotatable=0;deletable=0;editable=0;locked=1;connectable=0;" parent="1" source="Ys8VjhH2vFzZ4irLXQsm-14" target="Ys8VjhH2vFzZ4irLXQsm-20" edge="1">
          <mxGeometry relative="1" as="geometry" />
        </mxCell>
        <mxCell id="Ys8VjhH2vFzZ4irLXQsm-14" value="&lt;font style=&quot;font-size: 16px;&quot;&gt;&lt;b&gt;CSRs&lt;/b&gt;&lt;/font&gt;" style="rounded=1;whiteSpace=wrap;html=1;movable=0;resizable=0;rotatable=0;deletable=0;editable=0;locked=1;connectable=0;" parent="1" vertex="1">
          <mxGeometry x="390" y="447.5" width="207.5" height="105" as="geometry" />
        </mxCell>
        <mxCell id="Ys8VjhH2vFzZ4irLXQsm-16" value="Addr" style="text;html=1;align=center;verticalAlign=middle;whiteSpace=wrap;rounded=0;fontSize=16;fontStyle=1;movable=0;resizable=0;rotatable=0;deletable=0;editable=0;locked=1;connectable=0;" parent="1" vertex="1">
          <mxGeometry x="527.5" y="455" width="60" height="30" as="geometry" />
        </mxCell>
        <mxCell id="Ys8VjhH2vFzZ4irLXQsm-18" value="Out" style="text;html=1;align=center;verticalAlign=middle;whiteSpace=wrap;rounded=0;fontSize=16;fontStyle=1;movable=0;resizable=0;rotatable=0;deletable=0;editable=0;locked=1;connectable=0;" parent="1" vertex="1">
          <mxGeometry x="527.5" y="510" width="60" height="30" as="geometry" />
        </mxCell>
        <mxCell id="Ys8VjhH2vFzZ4irLXQsm-20" value="CSRs_OUT" style="rounded=0;whiteSpace=wrap;html=1;fontSize=16;fillColor=#d5e8d4;strokeColor=#82b366;container=0;fontStyle=1;movable=0;resizable=0;rotatable=0;deletable=0;editable=0;locked=1;connectable=0;" parent="1" vertex="1">
          <mxGeometry x="716" y="677.5" width="80" height="30" as="geometry" />
        </mxCell>
        <mxCell id="Ys8VjhH2vFzZ4irLXQsm-41" style="edgeStyle=orthogonalEdgeStyle;rounded=0;orthogonalLoop=1;jettySize=auto;html=1;exitX=1;exitY=0.5;exitDx=0;exitDy=0;entryX=0.75;entryY=1;entryDx=0;entryDy=0;movable=0;resizable=0;rotatable=0;deletable=0;editable=0;locked=1;connectable=0;" parent="1" source="Ys8VjhH2vFzZ4irLXQsm-21" target="Ys8VjhH2vFzZ4irLXQsm-38" edge="1">
          <mxGeometry relative="1" as="geometry" />
        </mxCell>
        <mxCell id="Ys8VjhH2vFzZ4irLXQsm-62" style="edgeStyle=orthogonalEdgeStyle;rounded=0;orthogonalLoop=1;jettySize=auto;html=1;exitX=1;exitY=0.5;exitDx=0;exitDy=0;entryX=0;entryY=0.75;entryDx=0;entryDy=0;strokeColor=#009900;strokeWidth=3;movable=0;resizable=0;rotatable=0;deletable=0;editable=0;locked=1;connectable=0;" parent="1" source="Ys8VjhH2vFzZ4irLXQsm-21" target="MULMhlW8bTZCU8NpR_TZ-32" edge="1">
          <mxGeometry relative="1" as="geometry">
            <Array as="points">
              <mxPoint x="817.5" y="755" />
              <mxPoint x="817.5" y="810" />
              <mxPoint x="1087.5" y="810" />
              <mxPoint x="1087.5" y="618" />
            </Array>
          </mxGeometry>
        </mxCell>
        <mxCell id="Ys8VjhH2vFzZ4irLXQsm-21" value="Rs2" style="rounded=0;whiteSpace=wrap;html=1;fontSize=16;fillColor=#d5e8d4;strokeColor=#82b366;container=0;fontStyle=1;movable=0;resizable=0;rotatable=0;deletable=0;editable=0;locked=1;connectable=0;" parent="1" vertex="1">
          <mxGeometry x="717.5" y="740" width="80" height="30" as="geometry" />
        </mxCell>
        <mxCell id="Ys8VjhH2vFzZ4irLXQsm-22" value="Data_In" style="text;html=1;align=center;verticalAlign=middle;whiteSpace=wrap;rounded=0;fontSize=16;fontStyle=1;movable=0;resizable=0;rotatable=0;deletable=0;editable=0;locked=1;connectable=0;" parent="1" vertex="1">
          <mxGeometry x="390" y="510" width="60" height="30" as="geometry" />
        </mxCell>
        <mxCell id="Ys8VjhH2vFzZ4irLXQsm-23" style="edgeStyle=orthogonalEdgeStyle;rounded=0;orthogonalLoop=1;jettySize=auto;html=1;exitX=0.25;exitY=1;exitDx=0;exitDy=0;exitPerimeter=0;entryX=0.146;entryY=-0.018;entryDx=0;entryDy=0;entryPerimeter=0;dashed=1;dashPattern=1 2;strokeWidth=3;strokeColor=#FF0000;movable=0;resizable=0;rotatable=0;deletable=0;editable=0;locked=1;connectable=0;" parent="1" source="EvM-ZbhBUgG-s1-ycYIe-31" target="Ys8VjhH2vFzZ4irLXQsm-14" edge="1">
          <mxGeometry relative="1" as="geometry">
            <Array as="points">
              <mxPoint x="420.5" y="230" />
            </Array>
          </mxGeometry>
        </mxCell>
        <mxCell id="Ys8VjhH2vFzZ4irLXQsm-24" value="CSRs_We" style="text;html=1;align=center;verticalAlign=middle;resizable=0;points=[];autosize=1;strokeColor=none;fillColor=none;fontColor=#ee1717;fontSize=16;fontStyle=1;movable=0;rotatable=0;deletable=0;editable=0;locked=1;connectable=0;" parent="1" vertex="1">
          <mxGeometry x="327.5" y="405" width="100" height="30" as="geometry" />
        </mxCell>
        <mxCell id="Ys8VjhH2vFzZ4irLXQsm-45" style="edgeStyle=orthogonalEdgeStyle;rounded=0;orthogonalLoop=1;jettySize=auto;html=1;exitX=0.5;exitY=0;exitDx=0;exitDy=0;entryX=0.25;entryY=1;entryDx=0;entryDy=0;movable=0;resizable=0;rotatable=0;deletable=0;editable=0;locked=1;connectable=0;" parent="1" source="Ys8VjhH2vFzZ4irLXQsm-28" target="MULMhlW8bTZCU8NpR_TZ-43" edge="1">
          <mxGeometry relative="1" as="geometry" />
        </mxCell>
        <mxCell id="Ys8VjhH2vFzZ4irLXQsm-28" value="M&lt;div&gt;U&lt;/div&gt;&lt;div&gt;X&lt;/div&gt;" style="shape=trapezoid;perimeter=trapezoidPerimeter;whiteSpace=wrap;html=1;fixedSize=1;direction=south;fontSize=16;fontStyle=1;movable=0;resizable=0;rotatable=0;deletable=0;editable=0;locked=1;connectable=0;" parent="1" vertex="1">
          <mxGeometry x="837.5" y="475" width="40" height="115" as="geometry" />
        </mxCell>
        <mxCell id="Ys8VjhH2vFzZ4irLXQsm-37" style="edgeStyle=orthogonalEdgeStyle;rounded=0;orthogonalLoop=1;jettySize=auto;html=1;exitX=1;exitY=0.5;exitDx=0;exitDy=0;entryX=0;entryY=0.5;entryDx=0;entryDy=0;dashed=1;dashPattern=1 2;strokeWidth=3;strokeColor=#FF0000;movable=0;resizable=0;rotatable=0;deletable=0;editable=0;locked=1;connectable=0;" parent="1" source="Ys8VjhH2vFzZ4irLXQsm-35" target="Ys8VjhH2vFzZ4irLXQsm-28" edge="1">
          <mxGeometry relative="1" as="geometry" />
        </mxCell>
        <mxCell id="Ys8VjhH2vFzZ4irLXQsm-35" value="Asrc" style="rounded=0;whiteSpace=wrap;html=1;fillColor=#e51400;strokeColor=#B20000;fontColor=#ffffff;fontSize=16;fontStyle=1;movable=0;resizable=0;rotatable=0;deletable=0;editable=0;locked=1;connectable=0;" parent="1" vertex="1">
          <mxGeometry x="716" y="140" width="80" height="30" as="geometry" />
        </mxCell>
        <mxCell id="Ys8VjhH2vFzZ4irLXQsm-36" value="BSrc" style="rounded=0;whiteSpace=wrap;html=1;fillColor=#e51400;strokeColor=#B20000;fontColor=#ffffff;fontSize=16;fontStyle=1;movable=0;resizable=0;rotatable=0;deletable=0;editable=0;locked=1;connectable=0;" parent="1" vertex="1">
          <mxGeometry x="716" y="170" width="80" height="30" as="geometry" />
        </mxCell>
        <mxCell id="Ys8VjhH2vFzZ4irLXQsm-46" style="edgeStyle=orthogonalEdgeStyle;rounded=0;orthogonalLoop=1;jettySize=auto;html=1;exitX=0.5;exitY=0;exitDx=0;exitDy=0;entryX=0.75;entryY=1;entryDx=0;entryDy=0;movable=0;resizable=0;rotatable=0;deletable=0;editable=0;locked=1;connectable=0;" parent="1" source="Ys8VjhH2vFzZ4irLXQsm-38" target="MULMhlW8bTZCU8NpR_TZ-43" edge="1">
          <mxGeometry relative="1" as="geometry" />
        </mxCell>
        <mxCell id="Ys8VjhH2vFzZ4irLXQsm-38" value="M&lt;div&gt;U&lt;/div&gt;&lt;div&gt;X&lt;/div&gt;" style="shape=trapezoid;perimeter=trapezoidPerimeter;whiteSpace=wrap;html=1;fixedSize=1;direction=south;fontSize=16;fontStyle=1;points=[[0,0,0,0,0],[0,0.13,0,0,0],[0,0.37,0,0,0],[0,0.5,0,0,0],[0,0.63,0,0,0],[0,0.88,0,0,0],[0,1,0,0,0],[0.25,0,0,0,0],[0.25,1,0,0,0],[0.5,0,0,0,0],[0.75,0,0,0,0],[0.75,1,0,0,0],[1,0,0,0,0],[1,0.25,0,0,0],[1,0.5,0,0,0],[1,0.75,0,0,0],[1,1,0,0,0]];movable=0;resizable=0;rotatable=0;deletable=0;editable=0;locked=1;connectable=0;" parent="1" vertex="1">
          <mxGeometry x="847.5" y="637" width="60" height="153" as="geometry" />
        </mxCell>
        <mxCell id="Ys8VjhH2vFzZ4irLXQsm-48" value="&quot;4&quot;" style="rounded=0;whiteSpace=wrap;html=1;fontSize=16;fillColor=#d5e8d4;strokeColor=#82b366;container=0;fontStyle=1;movable=0;resizable=0;rotatable=0;deletable=0;editable=0;locked=1;connectable=0;" parent="1" vertex="1">
          <mxGeometry x="717.5" y="707.5" width="80" height="30" as="geometry" />
        </mxCell>
        <mxCell id="Ys8VjhH2vFzZ4irLXQsm-51" style="edgeStyle=orthogonalEdgeStyle;rounded=0;orthogonalLoop=1;jettySize=auto;html=1;exitX=1;exitY=0.5;exitDx=0;exitDy=0;entryX=0.25;entryY=1;entryDx=0;entryDy=0;entryPerimeter=0;movable=0;resizable=0;rotatable=0;deletable=0;editable=0;locked=1;connectable=0;" parent="1" source="EvM-ZbhBUgG-s1-ycYIe-30" target="Ys8VjhH2vFzZ4irLXQsm-38" edge="1">
          <mxGeometry relative="1" as="geometry" />
        </mxCell>
        <mxCell id="Ys8VjhH2vFzZ4irLXQsm-54" style="edgeStyle=orthogonalEdgeStyle;rounded=0;orthogonalLoop=1;jettySize=auto;html=1;exitX=1;exitY=0.5;exitDx=0;exitDy=0;entryX=0.639;entryY=0.942;entryDx=0;entryDy=0;entryPerimeter=0;movable=0;resizable=0;rotatable=0;deletable=0;editable=0;locked=1;connectable=0;" parent="1" source="Ys8VjhH2vFzZ4irLXQsm-48" target="Ys8VjhH2vFzZ4irLXQsm-38" edge="1">
          <mxGeometry relative="1" as="geometry" />
        </mxCell>
        <mxCell id="Ys8VjhH2vFzZ4irLXQsm-55" style="edgeStyle=orthogonalEdgeStyle;rounded=0;orthogonalLoop=1;jettySize=auto;html=1;exitX=1;exitY=0.5;exitDx=0;exitDy=0;entryX=0.482;entryY=0.969;entryDx=0;entryDy=0;entryPerimeter=0;movable=0;resizable=0;rotatable=0;deletable=0;editable=0;locked=1;connectable=0;" parent="1" source="Ys8VjhH2vFzZ4irLXQsm-20" target="Ys8VjhH2vFzZ4irLXQsm-38" edge="1">
          <mxGeometry relative="1" as="geometry" />
        </mxCell>
        <mxCell id="Ys8VjhH2vFzZ4irLXQsm-56" style="edgeStyle=orthogonalEdgeStyle;rounded=0;orthogonalLoop=1;jettySize=auto;html=1;exitX=1;exitY=0.5;exitDx=0;exitDy=0;entryX=0.078;entryY=0.472;entryDx=0;entryDy=0;entryPerimeter=0;dashed=1;dashPattern=1 2;strokeWidth=3;strokeColor=#FF0000;movable=0;resizable=0;rotatable=0;deletable=0;editable=0;locked=1;connectable=0;" parent="1" source="Ys8VjhH2vFzZ4irLXQsm-36" target="Ys8VjhH2vFzZ4irLXQsm-38" edge="1">
          <mxGeometry relative="1" as="geometry">
            <Array as="points">
              <mxPoint x="897.5" y="185" />
              <mxPoint x="897.5" y="652" />
              <mxPoint x="888.5" y="652" />
              <mxPoint x="888.5" y="649" />
            </Array>
          </mxGeometry>
        </mxCell>
        <mxCell id="Ys8VjhH2vFzZ4irLXQsm-61" style="edgeStyle=orthogonalEdgeStyle;rounded=0;orthogonalLoop=1;jettySize=auto;html=1;exitX=0.5;exitY=0;exitDx=0;exitDy=0;entryX=-0.021;entryY=0.708;entryDx=0;entryDy=0;entryPerimeter=0;movable=0;resizable=0;rotatable=0;deletable=0;editable=0;locked=1;connectable=0;" parent="1" source="MULMhlW8bTZCU8NpR_TZ-43" target="MULMhlW8bTZCU8NpR_TZ-32" edge="1">
          <mxGeometry relative="1" as="geometry" />
        </mxCell>
        <mxCell id="Ys8VjhH2vFzZ4irLXQsm-63" value="ALUAsrc" style="text;html=1;align=center;verticalAlign=middle;resizable=0;points=[];autosize=1;strokeColor=none;fillColor=none;fontColor=#ee1717;fontSize=16;fontStyle=1;movable=0;rotatable=0;deletable=0;editable=0;locked=1;connectable=0;" parent="1" vertex="1">
          <mxGeometry x="812.5" y="435" width="90" height="30" as="geometry" />
        </mxCell>
        <mxCell id="Ys8VjhH2vFzZ4irLXQsm-64" value="ALUBsrc" style="text;html=1;align=center;verticalAlign=middle;resizable=0;points=[];autosize=1;strokeColor=none;fillColor=none;fontColor=#ee1717;fontSize=16;fontStyle=1;movable=0;rotatable=0;deletable=0;editable=0;locked=1;connectable=0;" parent="1" vertex="1">
          <mxGeometry x="857.5" y="607" width="90" height="30" as="geometry" />
        </mxCell>
        <mxCell id="Ys8VjhH2vFzZ4irLXQsm-65" value="AluOp" style="text;html=1;align=center;verticalAlign=middle;resizable=0;points=[];autosize=1;strokeColor=none;fillColor=none;fontColor=#ee1717;fontSize=16;fontStyle=1;movable=0;rotatable=0;deletable=0;editable=0;locked=1;connectable=0;" parent="1" vertex="1">
          <mxGeometry x="987.5" y="495" width="70" height="30" as="geometry" />
        </mxCell>
        <mxCell id="Ys8VjhH2vFzZ4irLXQsm-66" value="MemWe" style="text;html=1;align=center;verticalAlign=middle;resizable=0;points=[];autosize=1;strokeColor=none;fillColor=none;fontColor=#ee1717;fontSize=16;fontStyle=1;movable=0;rotatable=0;deletable=0;editable=0;locked=1;connectable=0;" parent="1" vertex="1">
          <mxGeometry x="1382.5" y="447.5" width="80" height="30" as="geometry" />
        </mxCell>
        <mxCell id="Ys8VjhH2vFzZ4irLXQsm-69" style="edgeStyle=orthogonalEdgeStyle;rounded=0;orthogonalLoop=1;jettySize=auto;html=1;exitX=1;exitY=0.5;exitDx=0;exitDy=0;entryX=0;entryY=0.5;entryDx=0;entryDy=0;strokeWidth=3;strokeColor=#009900;movable=0;resizable=0;rotatable=0;deletable=0;editable=0;locked=1;connectable=0;" parent="1" source="Ys8VjhH2vFzZ4irLXQsm-67" target="Ys8VjhH2vFzZ4irLXQsm-68" edge="1">
          <mxGeometry relative="1" as="geometry" />
        </mxCell>
        <mxCell id="Ys8VjhH2vFzZ4irLXQsm-67" value="CSRs_OUT" style="rounded=0;whiteSpace=wrap;html=1;fontSize=16;fillColor=#d5e8d4;strokeColor=#82b366;container=0;fontStyle=1;movable=0;resizable=0;rotatable=0;deletable=0;editable=0;locked=1;connectable=0;" parent="1" vertex="1">
          <mxGeometry x="1112.5" y="655" width="80" height="30" as="geometry" />
        </mxCell>
        <mxCell id="Ys8VjhH2vFzZ4irLXQsm-71" style="edgeStyle=orthogonalEdgeStyle;rounded=0;orthogonalLoop=1;jettySize=auto;html=1;exitX=1;exitY=0.5;exitDx=0;exitDy=0;entryX=0.75;entryY=1;entryDx=0;entryDy=0;movable=0;resizable=0;rotatable=0;deletable=0;editable=0;locked=1;connectable=0;" parent="1" source="Ys8VjhH2vFzZ4irLXQsm-68" target="MULMhlW8bTZCU8NpR_TZ-99" edge="1">
          <mxGeometry relative="1" as="geometry" />
        </mxCell>
        <mxCell id="Ys8VjhH2vFzZ4irLXQsm-68" value="CSRs_OUT" style="rounded=0;whiteSpace=wrap;html=1;fontSize=16;fillColor=#d5e8d4;strokeColor=#82b366;container=0;fontStyle=1;movable=0;resizable=0;rotatable=0;deletable=0;editable=0;locked=1;connectable=0;" parent="1" vertex="1">
          <mxGeometry x="1601" y="655" width="80" height="30" as="geometry" />
        </mxCell>
        <mxCell id="Ys8VjhH2vFzZ4irLXQsm-73" style="edgeStyle=orthogonalEdgeStyle;rounded=0;orthogonalLoop=1;jettySize=auto;html=1;exitX=1;exitY=0.5;exitDx=0;exitDy=0;entryX=0.342;entryY=1;entryDx=0;entryDy=0;entryPerimeter=0;movable=0;resizable=0;rotatable=0;deletable=0;editable=0;locked=1;connectable=0;" parent="1" source="MULMhlW8bTZCU8NpR_TZ-91" target="MULMhlW8bTZCU8NpR_TZ-99" edge="1">
          <mxGeometry relative="1" as="geometry">
            <Array as="points">
              <mxPoint x="1729.5" y="495" />
              <mxPoint x="1729.5" y="570" />
            </Array>
          </mxGeometry>
        </mxCell>
        <mxCell id="Ys8VjhH2vFzZ4irLXQsm-75" style="edgeStyle=orthogonalEdgeStyle;rounded=0;orthogonalLoop=1;jettySize=auto;html=1;exitX=1;exitY=0.5;exitDx=0;exitDy=0;entryX=0;entryY=0.5;entryDx=0;entryDy=0;movable=0;resizable=0;rotatable=0;deletable=0;editable=0;locked=1;connectable=0;" parent="1" source="Ys8VjhH2vFzZ4irLXQsm-74" target="EvM-ZbhBUgG-s1-ycYIe-42" edge="1">
          <mxGeometry relative="1" as="geometry">
            <Array as="points">
              <mxPoint x="317.5" y="715" />
              <mxPoint x="317.5" y="663" />
            </Array>
          </mxGeometry>
        </mxCell>
        <mxCell id="Ys8VjhH2vFzZ4irLXQsm-76" style="edgeStyle=orthogonalEdgeStyle;rounded=0;orthogonalLoop=1;jettySize=auto;html=1;exitX=1;exitY=0.5;exitDx=0;exitDy=0;entryX=0;entryY=0.5;entryDx=0;entryDy=0;movable=0;resizable=0;rotatable=0;deletable=0;editable=0;locked=1;connectable=0;" parent="1" source="Ys8VjhH2vFzZ4irLXQsm-74" target="EvM-ZbhBUgG-s1-ycYIe-43" edge="1">
          <mxGeometry relative="1" as="geometry" />
        </mxCell>
        <mxCell id="Ys8VjhH2vFzZ4irLXQsm-77" style="edgeStyle=orthogonalEdgeStyle;rounded=0;orthogonalLoop=1;jettySize=auto;html=1;exitX=1;exitY=0.5;exitDx=0;exitDy=0;entryX=0;entryY=0.75;entryDx=0;entryDy=0;movable=0;resizable=0;rotatable=0;deletable=0;editable=0;locked=1;connectable=0;" parent="1" source="Ys8VjhH2vFzZ4irLXQsm-74" target="EvM-ZbhBUgG-s1-ycYIe-44" edge="1">
          <mxGeometry relative="1" as="geometry">
            <Array as="points">
              <mxPoint x="317.5" y="715" />
              <mxPoint x="317.5" y="763" />
            </Array>
          </mxGeometry>
        </mxCell>
        <mxCell id="Ys8VjhH2vFzZ4irLXQsm-74" value="inst" style="rounded=0;whiteSpace=wrap;html=1;fontSize=16;fillColor=#d5e8d4;strokeColor=#82b366;container=0;fontStyle=1;movable=0;resizable=0;rotatable=0;deletable=0;editable=0;locked=1;connectable=0;" parent="1" vertex="1">
          <mxGeometry x="217.5" y="700" width="80" height="30" as="geometry" />
        </mxCell>
        <mxCell id="e7BCHE7lE8FOx-Usk-uh-4" style="edgeStyle=orthogonalEdgeStyle;rounded=0;orthogonalLoop=1;jettySize=auto;html=1;exitX=1;exitY=0.5;exitDx=0;exitDy=0;entryX=0;entryY=0.5;entryDx=0;entryDy=0;movable=0;resizable=0;rotatable=0;deletable=0;editable=0;locked=1;connectable=0;" parent="1" source="e7BCHE7lE8FOx-Usk-uh-1" target="e7BCHE7lE8FOx-Usk-uh-3" edge="1">
          <mxGeometry relative="1" as="geometry" />
        </mxCell>
        <mxCell id="e7BCHE7lE8FOx-Usk-uh-1" value="dnpc相关处理" style="rounded=0;whiteSpace=wrap;html=1;fontSize=16;fontStyle=1;movable=0;resizable=0;rotatable=0;deletable=0;editable=0;locked=1;connectable=0;" parent="1" vertex="1">
          <mxGeometry x="947.5" y="352.5" width="120" height="60" as="geometry" />
        </mxCell>
        <mxCell id="e7BCHE7lE8FOx-Usk-uh-3" value="dnpc" style="rounded=0;whiteSpace=wrap;html=1;fontSize=16;fillColor=#d5e8d4;strokeColor=#82b366;container=0;fontStyle=1;movable=0;resizable=0;rotatable=0;deletable=0;editable=0;locked=1;connectable=0;" parent="1" vertex="1">
          <mxGeometry x="1112.5" y="367.5" width="80" height="30" as="geometry" />
        </mxCell>
      </root>
    </mxGraphModel>
  </diagram>
</mxfile>
